<?xml version="1.0" encoding="UTF-8" standalone="no"?>
<!-- Created with Inkscape (http://www.inkscape.org/) -->

<svg
   width="24.324202mm"
   height="20.111788mm"
   viewBox="0 0 24.324202 20.111788"
   version="1.1"
   id="svg126"
   inkscape:export-filename="/Users/tfp10/Documents/bitmap.png"
   inkscape:export-xdpi="96"
   inkscape:export-ydpi="96"
   inkscape:version="1.1.2 (b8e25be8, 2022-02-05)"
   sodipodi:docname="mouse.svg"
   xmlns:inkscape="http://www.inkscape.org/namespaces/inkscape"
   xmlns:sodipodi="http://sodipodi.sourceforge.net/DTD/sodipodi-0.dtd"
   xmlns="http://www.w3.org/2000/svg"
   xmlns:svg="http://www.w3.org/2000/svg">
  <sodipodi:namedview
     id="namedview128"
     pagecolor="#ffffff"
     bordercolor="#666666"
     borderopacity="1.0"
     inkscape:pageshadow="2"
     inkscape:pageopacity="0.0"
     inkscape:pagecheckerboard="0"
     inkscape:document-units="mm"
     showgrid="false"
     inkscape:zoom="1.6095219"
     inkscape:cx="48.461595"
     inkscape:cy="57.15983"
     inkscape:window-width="1280"
     inkscape:window-height="772"
     inkscape:window-x="0"
     inkscape:window-y="28"
     inkscape:window-maximized="0"
     inkscape:current-layer="layer1"
     fit-margin-top="0"
     fit-margin-left="0"
     fit-margin-right="0"
     fit-margin-bottom="0" />
  <defs
     id="defs123">
    <marker
       inkscape:collect="always"
       inkscape:isstock="true"
       style="overflow:visible"
       id="Arrow2Lend"
       refX="0"
       refY="0"
       orient="auto"
       inkscape:stockid="Arrow2Lend">
      <path
         transform="matrix(-1.1,0,0,-1.1,-1.1,0)"
         d="M 8.7185878,4.0337352 -2.2072895,0.01601326 8.7185884,-4.0017078 c -1.7454984,2.3720609 -1.7354408,5.6174519 -6e-7,8.035443 z"
         style="fill:#000000;fill-opacity:1;fill-rule:evenodd;stroke:#000000;stroke-width:0.625;stroke-linejoin:round;stroke-opacity:1"
         id="path5555" />
    </marker>
  </defs>
  <g
     inkscape:label="Layer 1"
     inkscape:groupmode="layer"
     id="layer1"
     transform="translate(-18.188187,-40.833385)">
    <path
       inkscape:connector-curvature="0"
       style="fill:none;fill-opacity:1;fill-rule:nonzero;stroke:#000000;stroke-width:0.449581;stroke-miterlimit:4;stroke-dasharray:none;stroke-opacity:1;marker-end:url(#Arrow2Lend)"
       d="m 42.369371,60.771998 c -0.0129,-0.01056 -0.0258,-0.02115 -0.03871,-0.03172 -0.0129,-0.01056 -0.02581,-0.02116 -0.03871,-0.03172 -0.0129,-0.01056 -0.02581,-0.02116 -0.03871,-0.03173 -0.0129,-0.01056 -0.02583,-0.02116 -0.03871,-0.03173 -0.0129,-0.01056 -0.02581,-0.02115 -0.03871,-0.03172 -0.0129,-0.01056 -0.02583,-0.02116 -0.03871,-0.03175 -0.0129,-0.01056 -0.02583,-0.02115 -0.03871,-0.03172 -0.0129,-0.01056 -0.02581,-0.02116 -0.03871,-0.03172 -0.0129,-0.01056 -0.0258,-0.02116 -0.03871,-0.03172 -0.0129,-0.01056 -0.02581,-0.02116 -0.03871,-0.03175 -0.0129,-0.01056 -0.02581,-0.02116 -0.03871,-0.03172 -0.0129,-0.01056 -0.02581,-0.02116 -0.03871,-0.03173 -0.0129,-0.01056 -0.0258,-0.02116 -0.03871,-0.03173 -0.0129,-0.01056 -0.02581,-0.02116 -0.03871,-0.03172 -0.0129,-0.01056 -0.0258,-0.02116 -0.03871,-0.03173 -0.0129,-0.01056 -0.0258,-0.02116 -0.03871,-0.03172 -0.0129,-0.01056 -0.02581,-0.02116 -0.03871,-0.03172 -0.0129,-0.01056 -0.02581,-0.02116 -0.03871,-0.03173 -0.0129,-0.01056 -0.02581,-0.02116 -0.03871,-0.03173 -0.0129,-0.01056 -0.02581,-0.02115 -0.03871,-0.03172 -0.0129,-0.01056 -0.02583,-0.02116 -0.03871,-0.03173 -0.0129,-0.01056 -0.02581,-0.02116 -0.03871,-0.03172 -0.0129,-0.01056 -0.02583,-0.02116 -0.03871,-0.03172 -0.0129,-0.01056 -0.02581,-0.02116 -0.03871,-0.03175 -0.0129,-0.01056 -0.02581,-0.02116 -0.03872,-0.03173 -0.0129,-0.01056 -0.02583,-0.02116 -0.03871,-0.03172 -0.0129,-0.01056 -0.02581,-0.02116 -0.03871,-0.03173 -0.0129,-0.01056 -0.0258,-0.02116 -0.03871,-0.03175 -0.0129,-0.01056 -0.02581,-0.02115 -0.03871,-0.03172 -0.0129,-0.01056 -0.02581,-0.02116 -0.03871,-0.03172 -0.0129,-0.01056 -0.02581,-0.02115 -0.03871,-0.03173 -0.0129,-0.01056 -0.02583,-0.02116 -0.03871,-0.03174 -0.0129,-0.01056 -0.02581,-0.02115 -0.03871,-0.03172 -0.0129,-0.01056 -0.0258,-0.02116 -0.03871,-0.03173 -0.0129,-0.01056 -0.0258,-0.02115 -0.03871,-0.03172 -0.0129,-0.01056 -0.02579,-0.02116 -0.03871,-0.03172 -0.0129,-0.01056 -0.02583,-0.02115 -0.03871,-0.03172 -0.0129,-0.01056 -0.02581,-0.02116 -0.03871,-0.03173 -0.0129,-0.01056 -0.0258,-0.02115 -0.03871,-0.03173 -0.0129,-0.01056 -0.0258,-0.02116 -0.03871,-0.03175 -0.0129,-0.01056 -0.0258,-0.02115 -0.03871,-0.03172 -0.0129,-0.01056 -0.02583,-0.02116 -0.03871,-0.03175 -0.0129,-0.01056 -0.02579,-0.02115 -0.03871,-0.03172 -0.0129,-0.01056 -0.02581,-0.02116 -0.03871,-0.03173 -0.0129,-0.01056 -0.02581,-0.02115 -0.03871,-0.03172 -0.0129,-0.01056 -0.02581,-0.02116 -0.03871,-0.03175 -0.0129,-0.01056 -0.02583,-0.02115 -0.03871,-0.03172 -0.0129,-0.01056 -0.02581,-0.02116 -0.03871,-0.03172 -0.0129,-0.01056 -0.02581,-0.02115 -0.03871,-0.03172 -0.0129,-0.01056 -0.02581,-0.02116 -0.03871,-0.03175 -0.0129,-0.01056 -0.02583,-0.02115 -0.03871,-0.03172 -0.0129,-0.01056 -0.02581,-0.02116 -0.03871,-0.03173 -0.0129,-0.01056 -0.02581,-0.02115 -0.03871,-0.03172 -0.0129,-0.01056 -0.02581,-0.02116 -0.03872,-0.03175 -0.0129,-0.01056 -0.0258,-0.02115 -0.03871,-0.03173 -0.0129,-0.01056 -0.02583,-0.02116 -0.03871,-0.03172 -0.0129,-0.01056 -0.02581,-0.02115 -0.03871,-0.03173 -0.0129,-0.01056 -0.0258,-0.02116 -0.03871,-0.03172 -0.0129,-0.01056 -0.02581,-0.02115 -0.03871,-0.03173 -0.0129,-0.01056 -0.0258,-0.02116 -0.03871,-0.03172 -0.0129,-0.01056 -0.02581,-0.02115 -0.03871,-0.03173 -0.0129,-0.01056 -0.02581,-0.02116 -0.03871,-0.03172 -0.0129,-0.01056 -0.02581,-0.02115 -0.03871,-0.03172 -0.0129,-0.01056 -0.0258,-0.02116 -0.03871,-0.03172 -0.0129,-0.01056 -0.02581,-0.02116 -0.03871,-0.03173 -0.0129,-0.01056 -0.02583,-0.02116 -0.03871,-0.03172 -0.0129,-0.01056 -0.02581,-0.02116 -0.03871,-0.03173 -0.0129,-0.01056 -0.02581,-0.02115 -0.03871,-0.03172 -0.0129,-0.01056 -0.02581,-0.02116 -0.03871,-0.03173 -0.0129,-0.01056 -0.02583,-0.02116 -0.03871,-0.03175 -0.0129,-0.01056 -0.02581,-0.02115 -0.03871,-0.03173 -0.0129,-0.01056 -0.02581,-0.02116 -0.03871,-0.03172 -0.0129,-0.01056 -0.02583,-0.02115 -0.03871,-0.03173 -0.0129,-0.01056 -0.02581,-0.02116 -0.03871,-0.03173 -0.0129,-0.01056 -0.02581,-0.02116 -0.03871,-0.03172 -0.0129,-0.01056 -0.02583,-0.02116 -0.03871,-0.03172 -0.0129,-0.01056 -0.02581,-0.02115 -0.03871,-0.03172 -0.0129,-0.01056 -0.02583,-0.02116 -0.03871,-0.03175 -0.0129,-0.01056 -0.0258,-0.02115 -0.03871,-0.03173 -0.0129,-0.01056 -0.02583,-0.02116 -0.03871,-0.03172 -0.0129,-0.01056 -0.02581,-0.02115 -0.03871,-0.03172 -0.0129,-0.01056 -0.02581,-0.02116 -0.03871,-0.03173 -0.0129,-0.01056 -0.0258,-0.02115 -0.03871,-0.03172 -0.0129,-0.01056 -0.02583,-0.02116 -0.03871,-0.03175 -0.0129,-0.01056 -0.02581,-0.02115 -0.03871,-0.03172 -0.0129,-0.01056 -0.02581,-0.02116 -0.03871,-0.03175 -0.0129,-0.01056 -0.02583,-0.02115 -0.03871,-0.03172 -0.0129,-0.01056 -0.02583,-0.02116 -0.03871,-0.03175 -0.0129,-0.01056 -0.02583,-0.02115 -0.03871,-0.03173 -0.0129,-0.01056 -0.0258,-0.02116 -0.03871,-0.03172 -0.0129,-0.01056 -0.0258,-0.02115 -0.03871,-0.03172 -0.0129,-0.01056 -0.02583,-0.02116 -0.03871,-0.03172 -0.0129,-0.01056 -0.0258,-0.02116 -0.03871,-0.03173 -0.0129,-0.01056 -0.02583,-0.02116 -0.03871,-0.03172 -0.0129,-0.01056 -0.0258,-0.02116 -0.03871,-0.03172 -0.0129,-0.01056 -0.02581,-0.02115 -0.03871,-0.03172 -0.0129,-0.01056 -0.02583,-0.02116 -0.03871,-0.03173 -0.0129,-0.01056 -0.02581,-0.02115 -0.03871,-0.03172 -0.0129,-0.01056 -0.02583,-0.02116 -0.03871,-0.03172 -0.0129,-0.01056 -0.02581,-0.02115 -0.03871,-0.03173 -0.0129,-0.01056 -0.02581,-0.02116 -0.03871,-0.03175 -0.0129,-0.01056 -0.02581,-0.02115 -0.03871,-0.03172 -0.0129,-0.01056 -0.0258,-0.02116 -0.03871,-0.03172 -0.0129,-0.01056 -0.02581,-0.02115 -0.03871,-0.03172 -0.0129,-0.01056 -0.02583,-0.02116 -0.03871,-0.03175 -0.0129,-0.01056 -0.02581,-0.02115 -0.03871,-0.03172 -0.0129,-0.01056 -0.02583,-0.02116 -0.03871,-0.03172 -0.0129,-0.01056 -0.02583,-0.02116 -0.03871,-0.03173 -0.0129,-0.01056 -0.02581,-0.02116 -0.03871,-0.03175 -0.0129,-0.01056 -0.02583,-0.02115 -0.03871,-0.03172 -0.0129,-0.01056 -0.02583,-0.02116 -0.03871,-0.03173 -0.0129,-0.01056 -0.02581,-0.02115 -0.03871,-0.03173 -0.0129,-0.01056 -0.02581,-0.02116 -0.03871,-0.03172 -0.0129,-0.01056 -0.0258,-0.02115 -0.03871,-0.03172 -0.0129,-0.01056 -0.0258,-0.02116 -0.03871,-0.03175 -0.0129,-0.01056 -0.02583,-0.02115 -0.03871,-0.03172 -0.0129,-0.01056 -0.02581,-0.02116 -0.03871,-0.03175 -0.0129,-0.01056 -0.02583,-0.02115 -0.03871,-0.03172 -0.0129,-0.01056 -0.02583,-0.02116 -0.03871,-0.03172 -0.0129,-0.01056 -0.0258,-0.02116 -0.03871,-0.03173 -0.0129,-0.01056 -0.0258,-0.02116 -0.03871,-0.03173 -0.0129,-0.01056 -0.02581,-0.02115 -0.03871,-0.03173 -0.0129,-0.01056 -0.0258,-0.02116 -0.03872,-0.03172 -0.0129,-0.01056 -0.02581,-0.02115 -0.03871,-0.03173 -0.0129,-0.01056 -0.0258,-0.02116 -0.03871,-0.03172 -0.0129,-0.01056 -0.0258,-0.02115 -0.03871,-0.03173 -0.0129,-0.01056 -0.02581,-0.02116 -0.03871,-0.03172 -0.0129,-0.01056 -0.02581,-0.02115 -0.03871,-0.03173 -0.0129,-0.01056 -0.02583,-0.02116 -0.03871,-0.03172 -0.0129,-0.01056 -0.02583,-0.02115 -0.03871,-0.03172 -0.0129,-0.01056 -0.02581,-0.02116 -0.03871,-0.03172 -0.0129,-0.01056 -0.02581,-0.02116 -0.03871,-0.03172 -0.0129,-0.01056 -0.02583,-0.02115 -0.03871,-0.03173 -0.0129,-0.01056 -0.02581,-0.02116 -0.03871,-0.03172 -0.0129,-0.01056 -0.02583,-0.02115 -0.03871,-0.03173 -0.0129,-0.01056 -0.02581,-0.02116 -0.03871,-0.03173 -0.0129,-0.01056 -0.0258,-0.02116 -0.0387,-0.03175 -0.0129,-0.01056 -0.02583,-0.02117 -0.0387,-0.03173 -0.0129,-0.01056 -0.02581,-0.02117 -0.0387,-0.03176 -0.0129,-0.01056 -0.0258,-0.02117 -0.0387,-0.03176 -0.0129,-0.01056 -0.0258,-0.02117 -0.0387,-0.03176 -0.0129,-0.01056 -0.0258,-0.02117 -0.0387,-0.03176 -0.0129,-0.01056 -0.0258,-0.02117 -0.03871,-0.03177 -0.0129,-0.01056 -0.0258,-0.02117 -0.0387,-0.03176 -0.0129,-0.01056 -0.02579,-0.02117 -0.0387,-0.03176 -0.0129,-0.01056 -0.0258,-0.02117 -0.03872,-0.03173 -0.0129,-0.01056 -0.0258,-0.02116 -0.03871,-0.03173 -0.0129,-0.01056 -0.02583,-0.02115 -0.03873,-0.03172 -0.0129,-0.01056 -0.02583,-0.02114 -0.03875,-0.03169 -0.0129,-0.01056 -0.02584,-0.02111 -0.03876,-0.03168 -0.0129,-0.01056 -0.02586,-0.0211 -0.03879,-0.03167 -0.0129,-0.01056 -0.02586,-0.02109 -0.03882,-0.03162 -0.0129,-0.01056 -0.02586,-0.02109 -0.0388,-0.03162 -0.0129,-0.01056 -0.02586,-0.02107 -0.03882,-0.03162 -0.0129,-0.01056 -0.02586,-0.02109 -0.03882,-0.03162 -0.0129,-0.01056 -0.02586,-0.02108 -0.03882,-0.03162 -0.0129,-0.01056 -0.02586,-0.02109 -0.0388,-0.03162 -0.0129,-0.01056 -0.02586,-0.02107 -0.03879,-0.03167 -0.0129,-0.01056 -0.02585,-0.0211 -0.03876,-0.03169 -0.0129,-0.01056 -0.02583,-0.02117 -0.03872,-0.03177 -0.0129,-0.01056 -0.02575,-0.02122 -0.03862,-0.03184 -0.0129,-0.01056 -0.02572,-0.02127 -0.03858,-0.0319 -0.0129,-0.01056 -0.02567,-0.02132 -0.03835,-0.03215 -0.01273,-0.01079 -0.02547,-0.02159 -0.03835,-0.03215 -0.01273,-0.01079 -0.02547,-0.02159 -0.03837,-0.03215 -0.01273,-0.01079 -0.02547,-0.02157 -0.03819,-0.03238 -0.01273,-0.01079 -0.02547,-0.02157 -0.03819,-0.03237 -0.01273,-0.01079 -0.02546,-0.02157 -0.03817,-0.03238 -0.01273,-0.01079 -0.02547,-0.02159 -0.03819,-0.03238 -0.01273,-0.01079 -0.02547,-0.02157 -0.03837,-0.03215 -0.01273,-0.01079 -0.02544,-0.02157 -0.03835,-0.03215 -0.0129,-0.01056 -0.02576,-0.02122 -0.0387,-0.03173 -0.0129,-0.01056 -0.02592,-0.02106 -0.03908,-0.0313 -0.01308,-0.01045 -0.02616,-0.02072 -0.03924,-0.03109 -0.01326,-0.01011 -0.02635,-0.02051 -0.0398,-0.03045 -0.01326,-0.01011 -0.0267,-0.02008 -0.04016,-0.02997 -0.01343,-0.0099 -0.02689,-0.01986 -0.04049,-0.02961 -0.01343,-0.0099 -0.02708,-0.01963 -0.04074,-0.02929 -0.0136,-0.0098 -0.02726,-0.01941 -0.04093,-0.02908 -0.01377,-0.0094 -0.02739,-0.01924 -0.04098,-0.02897 -0.0136,-0.0098 -0.02726,-0.01939 -0.04086,-0.02914 -0.0136,-0.0098 -0.02708,-0.01963 -0.04056,-0.02953 -0.01343,-0.0099 -0.02689,-0.01984 -0.03997,-0.03019 -0.01326,-0.01011 -0.02616,-0.02072 -0.03909,-0.0313 -0.0129,-0.01056 -0.02567,-0.02132 -0.03819,-0.03238 -0.01255,-0.01102 -0.02492,-0.02223 -0.03695,-0.03385 -0.01203,-0.01157 -0.02405,-0.02328 -0.03575,-0.03531 -0.01168,-0.01207 -0.02316,-0.02436 -0.03435,-0.03699 -0.01133,-0.01241 -0.02227,-0.02542 -0.0331,-0.0385 -0.01079,-0.01309 -0.02145,-0.02642 -0.03202,-0.03982 -0.01046,-0.01342 -0.02087,-0.02709 -0.03121,-0.04078 -0.01024,-0.01375 -0.02058,-0.02747 -0.0309,-0.04118 -0.01024,-0.01375 -0.02063,-0.0274 -0.03111,-0.04091 -0.01046,-0.01341 -0.02108,-0.02687 -0.03201,-0.03988 -0.01079,-0.01291 -0.02203,-0.02574 -0.03354,-0.03798 -0.01151,-0.01224 -0.02349,-0.02398 -0.03589,-0.03516 -0.01255,-0.01102 -0.02547,-0.02157 -0.03906,-0.0313 -0.01343,-0.0099 -0.02771,-0.01888 -0.0425,-0.02716 -0.01482,-0.0084 -0.03029,-0.01576 -0.04651,-0.0223 -0.01622,-0.0066 -0.03309,-0.01241 -0.05066,-0.01727 -0.01756,-0.0049 -0.03581,-0.0091 -0.05468,-0.01241 -0.01884,-0.0034 -0.03829,-0.006 -0.05821,-0.0082 -0.01988,-0.002 -0.04025,-0.0036 -0.06086,-0.0049 -0.02058,-0.0012 -0.04145,-0.0022 -0.06232,-0.0032 -0.02084,-10e-4 -0.04164,-0.002 -0.06215,-0.0035 -0.02048,-0.0014 -0.04065,-0.0032 -0.06015,-0.0059 -0.01948,-0.0025 -0.03834,-0.006 -0.05615,-0.01079 -0.01782,-0.0047 -0.03464,-0.01056 -0.0501,-0.01798 -0.01552,-0.0074 -0.02959,-0.0166 -0.04213,-0.02761 -0.01255,-0.01102 -0.02342,-0.02406 -0.03247,-0.03927 -0.009,-0.01526 -0.01639,-0.03261 -0.02165,-0.05234 -0.0054,-0.01971 -0.0087,-0.04174 -0.01024,-0.06602 -0.0015,-0.0243 -0.0012,-0.05085 7.73e-4,-0.07942 0.0019,-0.02857 0.0056,-0.05919 0.01068,-0.09139 0.0051,-0.03221 0.01134,-0.06602 0.01851,-0.100824 0.0072,-0.03478 0.01517,-0.07058 0.02324,-0.10656 0.0081,-0.03595 0.01639,-0.07213 0.02408,-0.107559 0.0077,-0.03541 0.01482,-0.07012 0.02035,-0.103051 0.0056,-0.03291 0.0098,-0.06412 0.01152,-0.0925 0.0019,-0.02838 0.0013,-0.05395 -0.0023,-0.07578 -0.0036,-0.02181 -0.01024,-0.03985 -0.0209,-0.05326 -0.01046,-0.01342 -0.02492,-0.02223 -0.04363,-0.02578 -0.01869,-0.0035 -0.04177,-0.0018 -0.06943,0.0053 -0.02762,0.0073 -0.05988,0.02 -0.09667,0.03823 -0.03676,0.01825 -0.07809,0.04199 -0.123539,0.0707 -0.04543,0.02872 -0.09505,0.06243 -0.147989,0.100222 -0.05292,0.0378 -0.109272,0.07963 -0.167834,0.124188 -0.05854,0.04456 -0.119371,0.09182 -0.180977,0.14004 -0.06158,0.04823 -0.123992,0.09739 -0.185499,0.14551 -0.06149,0.04811 -0.122108,0.0951 -0.179957,0.138799 -0.05782,0.04372 -0.112936,0.08406 -0.163405,0.118837 -0.05046,0.03479 -0.09627,0.06393 -0.135676,0.08533 -0.03938,0.02144 -0.07236,0.03504 -0.09738,0.03912 -0.025,0.004 -0.04207,-0.0016 -0.05002,-0.0181 -0.008,-0.01644 -0.0068,-0.0441 0.004,-0.08332 0.01079,-0.03924 0.03141,-0.09025 0.06161,-0.152892 0.03024,-0.06262 0.07012,-0.136986 0.118953,-0.222104 0.04883,-0.08508 0.106585,-0.181028 0.171793,-0.285921 0.06522,-0.104879 0.137874,-0.218797 0.215785,-0.339033 0.07794,-0.120229 0.161085,-0.246836 0.246707,-0.376371 0.08562,-0.129522 0.173659,-0.262004 0.260826,-0.393437 0.0872,-0.131418 0.173468,-0.261779 0.255307,-0.386753 0.08186,-0.124959 0.159166,-0.244504 0.228374,-0.354248 0.06923,-0.109729 0.130253,-0.209598 0.179731,-0.295498 0.04949,-0.08589 0.08728,-0.157722 0.110582,-0.212009 0.0233,-0.05427 0.03193,-0.09089 0.0238,-0.10723 -0.0081,-0.01644 -0.03313,-0.01224 -0.07615,0.01342 -0.043,0.02581 -0.104163,0.07347 -0.183416,0.142993 -0.07923,0.06956 -0.176707,0.16106 -0.291067,0.27297 -0.11433,0.111921 -0.245694,0.244356 -0.391407,0.394147 -0.145704,0.149804 -0.305878,0.31703 -0.476649,0.49706 -0.170747,0.18005 -0.352171,0.372928 -0.539323,0.572738 -0.187128,0.199829 -0.380028,0.406565 -0.572946,0.613355 -0.192905,0.206804 -0.385844,0.413587 -0.572606,0.612942 -0.186747,0.199368 -0.367296,0.39119 -0.535385,0.567998 -0.168078,0.176821 -0.323629,0.338464 -0.460807,0.477932 -0.137159,0.139488 -0.255839,0.256608 -0.351029,0.34539 -0.09518,0.0888 -0.166753,0.149016 -0.210946,0.176242 -0.04419,0.02725 -0.06089,0.02122 -0.04802,-0.0205 0.0129,-0.04172 0.05557,-0.119408 0.128143,-0.233207 0.0726,-0.113787 0.175279,-0.263962 0.306165,-0.448164 0.130898,-0.184189 0.290124,-0.402656 0.473757,-0.650533 0.183642,-0.24787 0.391753,-0.525367 0.618487,-0.825305 0.226749,-0.299923 0.472151,-0.622434 0.728698,-0.958373 0.256567,-0.335926 0.524262,-0.685358 0.794372,-1.03767 0.270125,-0.3523 0.542591,-0.707488 0.807995,-1.054136 0.265428,-0.346628 0.523671,-0.684643 0.765297,-1.002561 0.241639,-0.317907 0.466468,-0.615574 0.665675,-0.882287 0.19923,-0.266694 0.372594,-0.502221 0.512582,-0.697413 0.140001,-0.195178 0.246345,-0.349773 0.31339,-0.456903 0.06707,-0.107106 0.09454,-0.166479 0.0792,-0.174112 -0.01535,-0.0075 -0.07379,0.03679 -0.175841,0.133851 -0.102038,0.09708 -0.247987,0.247113 -0.435341,0.447198 -0.187346,0.200092 -0.416403,0.450473 -0.681751,0.74472 -0.265335,0.294264 -0.567209,0.632585 -0.89753,1.005285 -0.330307,0.372716 -0.689243,0.779938 -1.066462,1.209272 -0.377208,0.429346 -0.77281,0.880844 -1.174837,1.340128 -0.402006,0.459295 -0.810468,0.926319 -1.212545,1.385649 -0.402051,0.459348 -0.797666,0.910858 -1.173976,1.339091 -0.376295,0.428247 -0.733158,0.832968 -1.05861,1.19979 -0.325435,0.366834 -0.619265,0.695443 -0.87125,0.973538 -0.251961,0.278113 -0.461822,0.50533 -0.621852,0.672409 -0.160021,0.167081 -0.26991,0.273596 -0.325092,0.31407 -0.05516,0.04049 -0.05531,0.01442 5.92e-4,-0.0792 0.05593,-0.09366 0.1682,-0.255422 0.334131,-0.481951 0.165951,-0.226515 0.385833,-0.518205 0.653294,-0.86732 0.267475,-0.349099 0.582736,-0.755964 0.936119,-1.208845 0.353409,-0.452862 0.745077,-0.951991 1.162617,-1.482323 0.417559,-0.530325 0.861033,-1.092005 1.31608,-1.667647 0.455073,-0.575622 0.921687,-1.165241 1.384499,-1.750239 0.462827,-0.58499 0.921715,-1.16528 1.361356,-1.722319 0.439666,-0.557018 0.85986,-1.090587 1.246374,-1.583459 0.386528,-0.492856 0.739072,-0.944737 1.045492,-1.340912 0.306445,-0.396155 0.566405,-0.736244 0.770718,-1.009105 0.20432,-0.272846 0.352582,-0.478059 0.439238,-0.608854 0.08667,-0.13078 0.111314,-0.186717 0.07242,-0.165924 -0.03887,0.02082 -0.141693,0.118753 -0.305712,0.290656 -0.164014,0.171915 -0.389634,0.418165 -0.670078,0.73064 -0.28043,0.312491 -0.616024,0.691514 -0.996352,1.124597 -0.380308,0.433094 -0.805618,0.920462 -1.262554,1.44605 -0.456923,0.525602 -0.945646,1.089527 -1.450738,1.673263 -0.505076,0.583751 -1.026598,1.187292 -1.548122,1.790871 -0.521513,0.603596 -1.043007,1.207092 -1.548129,1.790862 -0.50511,0.583791 -0.993731,1.147606 -1.450732,1.673272 -0.456983,0.525676 -0.88214,1.01286 -1.262561,1.446045 -0.3804,0.433203 -0.715789,0.811991 -0.996353,1.124595 -0.280537,0.312621 -0.505929,0.55859 -0.670081,0.730644 -0.164136,0.172063 -0.266692,0.269715 -0.305701,0.290659 -0.039,0.02096 -0.01412,-0.03528 0.07242,-0.165925 0.08655,-0.130629 0.235043,-0.336128 0.439242,-0.608855 0.204213,-0.272712 0.464378,-0.613049 0.770715,-1.009106 0.306352,-0.396044 0.659043,-0.84812 1.045501,-1.340906 0.386462,-0.492777 0.806754,-1.026479 1.246365,-1.583463 0.439627,-0.556973 0.898559,-1.137318 1.361354,-1.722315 0.462823,-0.58498 0.929409,-1.174583 1.384498,-1.750242 0.455097,-0.575652 0.898492,-1.137251 1.316084,-1.667647 0.417606,-0.530385 0.809148,-1.029356 1.162609,-1.482328 0.353481,-0.452955 0.668573,-0.859615 0.936127,-1.208841 0.26757,-0.349216 0.487246,-0.640664 0.653294,-0.867322 0.166056,-0.226642 0.278119,-0.38814 0.334131,-0.481948 0.05603,-0.09379 0.05564,-0.119524 5.82e-4,-0.0792 -0.05506,0.04034 -0.165166,0.14712 -0.325091,0.314073 -0.159917,0.166966 -0.369958,0.394403 -0.621852,0.672406 -0.251902,0.277995 -0.545851,0.606793 -0.871243,0.973544 -0.325373,0.366759 -0.682339,0.771602 -1.058616,1.19978 -0.37626,0.428203 -0.77193,0.879767 -1.173979,1.339097 -0.40204,0.459333 -0.81051,0.926351 -1.212539,1.385655 -0.402021,0.459311 -0.797581,0.910741 -1.174841,1.34012 -0.37724,0.429389 -0.736082,0.836497 -1.066462,1.209271 -0.330386,0.372765 -0.632112,0.710941 -0.897528,1.005285 -0.265406,0.294348 -0.494307,0.54454 -0.681745,0.744726 -0.18743,0.200195 -0.33321,0.350018 -0.435347,0.447189 -0.102127,0.09718 -0.160423,0.141382 -0.175844,0.133851 -0.01535,-0.0075 0.01221,-0.06708 0.0792,-0.174111 0.06698,-0.107015 0.173467,-0.261785 0.31339,-0.456904 0.139915,-0.195118 0.313422,-0.430772 0.512584,-0.697416 0.199174,-0.266629 0.424093,-0.564403 0.665673,-0.882284 0.241608,-0.317865 0.499899,-0.655939 0.765299,-1.002564 0.265411,-0.346609 0.537883,-0.701807 0.80799,-1.05413 0.270129,-0.352307 0.537799,-0.701706 0.794371,-1.037673 0.256586,-0.33595 0.50193,-0.65839 0.728695,-0.95838 0.226761,-0.299987 0.434819,-0.577358 0.618494,-0.825299 0.18369,-0.247931 0.342806,-0.466266 0.473751,-0.65054 0.13095,-0.184257 0.233517,-0.334286 0.306162,-0.448163 0.07265,-0.113871 0.115186,-0.191408 0.128143,-0.233214 0.0129,-0.04179 -0.0039,-0.04768 -0.04801,-0.02048 -0.04414,0.02718 -0.115814,0.08751 -0.210957,0.176238 -0.09512,0.08874 -0.213889,0.205954 -0.351027,0.345387 -0.137124,0.139454 -0.292735,0.301162 -0.460807,0.477932 -0.168044,0.176791 -0.348634,0.36866 -0.535385,0.567999 -0.186735,0.199353 -0.379687,0.406156 -0.572606,0.612944 -0.192905,0.206803 -0.385796,0.413529 -0.572954,0.613349 -0.187139,0.19984 -0.368533,0.392682 -0.539315,0.572743 -0.170799,0.180058 -0.330899,0.347243 -0.476643,0.497068 -0.145722,0.149837 -0.27703,0.282181 -0.391417,0.394143 -0.114366,0.111978 -0.211767,0.203391 -0.291061,0.272964 -0.07926,0.06958 -0.140368,0.117176 -0.183418,0.14301 -0.04304,0.02585 -0.068,0.02978 -0.07615,0.01343 -0.0081,-0.01628 5.55e-4,-0.053 0.0238,-0.107231 0.02326,-0.05422 0.06113,-0.126134 0.110582,-0.21201 0.04946,-0.08585 0.110529,-0.185779 0.179728,-0.295495 0.06923,-0.109706 0.146558,-0.229284 0.228377,-0.354252 0.08185,-0.124943 0.168131,-0.255327 0.255307,-0.386754 0.0872,-0.131418 0.17522,-0.26389 0.260826,-0.393436 0.08562,-0.129523 0.168776,-0.256117 0.246706,-0.376367 0.07792,-0.120263 0.150569,-0.234134 0.215786,-0.339034 0.06522,-0.104902 0.122964,-0.200791 0.171793,-0.285915 0.04885,-0.08512 0.08872,-0.159451 0.118935,-0.22211 0.03026,-0.06264 0.05077,-0.11362 0.06161,-0.152874 0.01079,-0.03925 0.01203,-0.06679 0.004,-0.08336 -0.008,-0.01644 -0.02493,-0.0222 -0.05002,-0.01808 -0.025,0.004 -0.05799,0.0177 -0.09738,0.03911 -0.03938,0.02142 -0.08523,0.05058 -0.135677,0.08535 -0.05044,0.03478 -0.105561,0.07513 -0.163404,0.118837 -0.05785,0.04369 -0.118447,0.0907 -0.179958,0.138817 -0.06147,0.04811 -0.123888,0.09728 -0.185505,0.145509 -0.0616,0.04823 -0.122406,0.09549 -0.180969,0.140041 -0.05857,0.04456 -0.114871,0.08639 -0.167834,0.124187 -0.05295,0.0378 -0.102522,0.0715 -0.147988,0.100211 -0.04545,0.02874 -0.08676,0.05244 -0.12354,0.07069 -0.03676,0.01826 -0.06902,0.031 -0.09667,0.03823 -0.02762,0.0073 -0.0507,0.0089 -0.06943,0.0053 -0.01869,-0.0035 -0.03309,-0.01241 -0.04365,-0.02578 -0.01068,-0.01342 -0.01726,-0.03145 -0.0209,-0.05324 -0.0036,-0.0218 -0.004,-0.04741 -0.0023,-0.07578 0.0019,-0.02838 0.0059,-0.05955 0.0115,-0.0925 0.0056,-0.03292 0.01273,-0.06762 0.02036,-0.103051 0.0077,-0.03541 0.01604,-0.0716 0.0241,-0.107559 0.0081,-0.03595 0.01604,-0.07175 0.02324,-0.10656 0.0072,-0.03479 0.01343,-0.06861 0.01851,-0.100836 0.0051,-0.03219 0.0087,-0.06282 0.01068,-0.0914 0.0019,-0.02857 0.0023,-0.05512 7.8e-4,-0.07941 -0.0015,-0.0243 -0.0048,-0.04632 -0.01024,-0.06605 -0.0054,-0.01971 -0.01255,-0.03712 -0.02166,-0.05236 -0.009,-0.01526 -0.01993,-0.02823 -0.03247,-0.03927 -0.01255,-0.01102 -0.0267,-0.02009 -0.04213,-0.02761 -0.01552,-0.0074 -0.03228,-0.01342 -0.05011,-0.01798 -0.01782,-0.0047 -0.03667,-0.0081 -0.05617,-0.01079 -0.01948,-0.0025 -0.03968,-0.0043 -0.06017,-0.0059 -0.02048,-0.0014 -0.04132,-0.0025 -0.06215,-0.0035 -0.02084,-9.99e-4 -0.04169,-0.002 -0.06229,-0.0032 -0.0206,-0.0012 -0.04098,-0.0028 -0.06088,-0.0049 -0.01988,-0.002 -0.03936,-0.0049 -0.05821,-0.0082 -0.01884,-0.0034 -0.03709,-0.0075 -0.05468,-0.01241 -0.01756,-0.0049 -0.03446,-0.01079 -0.05066,-0.01727 -0.01622,-0.0066 -0.03169,-0.0141 -0.04649,-0.02233 -0.01482,-0.0084 -0.02897,-0.01734 -0.0425,-0.02716 -0.01343,-0.0099 -0.02651,-0.02032 -0.03909,-0.0313 -0.01256,-0.01102 -0.02436,-0.0229 -0.03587,-0.03516 -0.01152,-0.01224 -0.02266,-0.02496 -0.03354,-0.03798 -0.01079,-0.01308 -0.02152,-0.02634 -0.03198,-0.03986 -0.01046,-0.01358 -0.02082,-0.02718 -0.03111,-0.04091 -0.01024,-0.01375 -0.02056,-0.02747 -0.0309,-0.04117 -0.01024,-0.01375 -0.0207,-0.02733 -0.03121,-0.04077 -0.01046,-0.01342 -0.02118,-0.0267 -0.03202,-0.03982 -0.01079,-0.01309 -0.02183,-0.02595 -0.0331,-0.0385 -0.01134,-0.01241 -0.0227,-0.0249 -0.03435,-0.037 -0.01168,-0.01207 -0.02359,-0.02382 -0.03575,-0.03531 -0.01203,-0.01157 -0.02454,-0.02268 -0.03695,-0.03386 -0.01256,-0.01102 -0.02529,-0.02181 -0.03819,-0.03237 -0.0129,-0.01056 -0.02595,-0.02099 -0.03909,-0.0313 -0.01326,-0.01011 -0.02651,-0.02032 -0.03999,-0.03021 -0.01343,-0.0099 -0.02688,-0.01984 -0.04055,-0.02953 -0.0136,-0.0098 -0.02726,-0.01941 -0.04086,-0.02914 -0.0136,-0.0098 -0.02726,-0.01939 -0.04098,-0.02897 -0.01377,-0.0095 -0.02726,-0.01941 -0.04093,-0.02908 -0.0136,-0.0098 -0.02726,-0.01939 -0.04074,-0.02929 -0.01343,-0.0099 -0.0269,-0.01984 -0.04049,-0.02961 -0.01343,-0.0099 -0.0269,-0.01986 -0.04016,-0.02997 -0.01326,-0.01011 -0.02649,-0.02032 -0.03978,-0.03043 -0.01326,-0.01011 -0.02616,-0.02072 -0.03924,-0.03109 -0.01308,-0.01045 -0.02616,-0.02072 -0.03906,-0.0313 -0.0129,-0.01056 -0.02583,-0.02111 -0.0387,-0.03176 -0.0129,-0.01056 -0.02572,-0.02125 -0.03835,-0.03215 -0.01273,-0.01079 -0.02547,-0.02159 -0.03835,-0.03215 -0.01273,-0.01079 -0.02547,-0.02157 -0.03819,-0.03238 -0.01273,-0.01079 -0.02547,-0.02157 -0.03819,-0.03238 -0.01273,-0.01079 -0.02547,-0.02157 -0.03817,-0.03238 -0.01273,-0.01079 -0.02547,-0.02159 -0.03817,-0.03238 -0.01273,-0.01079 -0.02547,-0.02157 -0.03837,-0.03215 -0.01273,-0.01079 -0.02547,-0.02157 -0.03835,-0.03215 -0.01273,-0.01079 -0.02547,-0.02157 -0.03835,-0.03215 -0.0129,-0.01056 -0.02572,-0.02127 -0.03858,-0.0319 -0.0129,-0.01056 -0.02576,-0.02122 -0.03862,-0.03184 -0.0129,-0.01056 -0.02577,-0.02118 -0.0387,-0.03176 -0.0129,-0.01056 -0.02583,-0.02114 -0.03875,-0.03169 -0.0129,-0.01056 -0.02586,-0.0211 -0.03877,-0.03165 -0.0129,-0.01056 -0.02588,-0.02109 -0.03882,-0.03162 -0.0129,-0.01056 -0.02588,-0.02109 -0.0388,-0.03162 -0.0129,-0.01056 -0.0259,-0.02106 -0.0388,-0.03162 -0.0129,-0.01056 -0.02588,-0.02109 -0.03882,-0.03162 -0.0129,-0.01056 -0.02588,-0.02109 -0.03882,-0.03162 -0.0129,-0.01056 -0.02586,-0.02109 -0.0388,-0.03162 -0.0129,-0.01056 -0.02586,-0.02109 -0.03877,-0.03165 -0.0129,-0.01056 -0.02586,-0.02113 -0.03877,-0.03168 -0.0129,-0.01056 -0.02583,-0.02111 -0.03875,-0.03169 -0.0129,-0.01056 -0.02583,-0.02114 -0.03873,-0.03172 -0.0129,-0.01056 -0.02583,-0.02115 -0.03871,-0.03173 -0.0129,-0.01056 -0.02581,-0.02117 -0.0387,-0.03175 -0.0129,-0.01056 -0.0258,-0.02117 -0.0387,-0.03176 -0.0129,-0.01056 -0.0258,-0.02117 -0.03868,-0.03176 -0.0129,-0.01056 -0.02581,-0.02117 -0.0387,-0.03176 -0.0129,-0.01056 -0.02579,-0.02117 -0.0387,-0.03176 -0.0129,-0.01056 -0.02581,-0.02117 -0.0387,-0.03176 -0.0129,-0.01056 -0.0258,-0.02117 -0.0387,-0.03173 -0.0129,-0.01056 -0.02581,-0.02117 -0.03871,-0.03176 -0.0129,-0.01056 -0.0258,-0.02117 -0.03871,-0.03173 -0.0129,-0.01056 -0.02581,-0.02116 -0.0387,-0.03175 -0.0129,-0.01056 -0.0258,-0.02115 -0.03871,-0.03173 -0.0129,-0.01056 -0.02581,-0.02116 -0.03871,-0.03173 -0.0129,-0.01056 -0.02581,-0.02116 -0.03871,-0.03172 -0.0129,-0.01056 -0.02581,-0.02116 -0.03871,-0.03172 -0.0129,-0.01056 -0.02581,-0.02115 -0.03871,-0.03173 -0.0129,-0.01056 -0.02583,-0.02116 -0.03871,-0.03172 -0.0129,-0.01056 -0.02581,-0.02115 -0.03871,-0.03173 -0.0129,-0.01056 -0.02581,-0.02116 -0.03873,-0.03172 -0.0129,-0.01056 -0.02583,-0.02115 -0.03871,-0.03172 -0.0129,-0.01056 -0.02581,-0.02116 -0.03871,-0.03172 -0.0129,-0.01056 -0.02583,-0.02115 -0.03873,-0.03173 -0.0129,-0.01056 -0.02581,-0.02116 -0.03871,-0.03173 -0.0129,-0.01056 -0.02581,-0.02115 -0.03871,-0.03172 -0.0129,-0.01056 -0.02581,-0.02116 -0.03871,-0.03172 -0.0129,-0.01056 -0.02581,-0.02115 -0.03871,-0.03173 -0.0129,-0.01056 -0.02581,-0.02116 -0.03873,-0.03175 -0.0129,-0.01056 -0.02581,-0.02115 -0.03871,-0.03173 -0.0129,-0.01056 -0.02581,-0.02116 -0.03871,-0.03172 -0.0129,-0.01056 -0.02581,-0.02115 -0.03871,-0.03173 -0.0129,-0.01056 -0.02581,-0.02116 -0.03871,-0.03172 -0.0129,-0.01056 -0.02581,-0.02115 -0.03873,-0.03173 -0.0129,-0.01056 -0.02581,-0.02116 -0.03871,-0.03172 -0.0129,-0.01056 -0.02583,-0.02115 -0.03873,-0.03173 -0.0129,-0.01056 -0.0258,-0.02116 -0.03871,-0.03172 -0.0129,-0.01056 -0.02583,-0.02115 -0.03871,-0.03173 -0.0129,-0.01056 -0.02583,-0.02116 -0.03871,-0.03172 -0.0129,-0.01056 -0.02583,-0.02115 -0.03871,-0.03173 -0.0129,-0.01056 -0.02581,-0.02116 -0.03871,-0.03172 -0.0129,-0.01056 -0.0258,-0.02115 -0.03871,-0.03173 -0.0129,-0.01056 -0.02583,-0.02115 -0.03873,-0.03173 -0.0129,-0.01056 -0.02581,-0.02116 -0.03871,-0.03172 -0.0129,-0.01056 -0.02581,-0.02116 -0.03871,-0.03172 -0.0129,-0.01056 -0.02581,-0.02115 -0.03872,-0.03173 -0.0129,-0.01056 -0.0258,-0.02116 -0.03871,-0.03172 -0.0129,-0.01056 -0.02581,-0.02115 -0.03871,-0.03173 -0.0129,-0.01056 -0.02581,-0.02116 -0.03871,-0.03172 -0.0129,-0.01056 -0.02581,-0.02115 -0.03871,-0.03173 -0.0129,-0.01056 -0.02581,-0.02116 -0.03871,-0.03172 -0.0129,-0.01056 -0.02581,-0.02115 -0.03871,-0.03173 -0.0129,-0.01056 -0.02579,-0.02116 -0.03871,-0.03172 -0.0129,-0.01056 -0.02581,-0.02115 -0.03871,-0.03173 -0.0129,-0.01056 -0.02581,-0.02116 -0.03871,-0.03172 -0.0129,-0.01056 -0.0258,-0.02115 -0.03871,-0.03173 -0.0129,-0.01056 -0.02581,-0.02116 -0.03871,-0.03172 -0.0129,-0.01056 -0.02583,-0.02115 -0.03873,-0.03173 -0.0129,-0.01056 -0.0258,-0.02116 -0.03871,-0.03172 -0.0129,-0.01056 -0.02581,-0.02116 -0.03871,-0.03172 -0.0129,-0.01056 -0.02581,-0.02116 -0.03872,-0.03173 -0.0129,-0.01056 -0.02583,-0.02116 -0.03873,-0.03173 -0.0129,-0.01056 -0.02581,-0.02116 -0.03871,-0.03172 -0.0129,-0.01056 -0.02581,-0.02116 -0.03871,-0.03172 -0.0129,-0.01056 -0.02581,-0.02116 -0.03871,-0.03173 -0.0129,-0.01056 -0.02581,-0.02116 -0.03871,-0.03175 -0.0129,-0.01056 -0.02581,-0.02116 -0.03871,-0.03172 -0.0129,-0.01056 -0.02581,-0.02116 -0.03871,-0.03173 -0.0129,-0.01056 -0.02581,-0.02116 -0.03871,-0.03172 -0.0129,-0.01056 -0.02581,-0.02116 -0.03871,-0.03175 -0.0129,-0.01056 -0.02581,-0.02116 -0.03871,-0.03172 -0.0129,-0.01056 -0.02581,-0.02116 -0.03871,-0.03172 -0.0129,-0.01056 -0.02581,-0.02116 -0.03871,-0.03173 -0.0129,-0.01056 -0.02581,-0.02116 -0.03871,-0.03172 -0.0129,-0.01056 -0.0258,-0.02116 -0.03871,-0.03173 -0.0129,-0.01056 -0.02581,-0.02116 -0.03871,-0.03172 -0.0129,-0.01056 -0.02583,-0.02116 -0.03871,-0.03172 -0.0129,-0.01056 -0.02583,-0.02115 -0.03871,-0.03173 -0.0129,-0.01056 -0.02581,-0.02116 -0.03873,-0.03173 -0.0129,-0.01056 -0.02581,-0.02116 -0.03871,-0.03172 -0.0129,-0.01056 -0.02583,-0.02115 -0.03871,-0.03172 -0.0129,-0.01056 -0.02581,-0.02115 -0.03871,-0.03173 -0.0129,-0.01056 -0.02581,-0.02116 -0.03873,-0.03173 -0.0129,-0.01056 -0.02581,-0.02116 -0.03871,-0.03172 -0.0129,-0.01056 -0.02581,-0.02116 -0.03871,-0.03173 -0.0129,-0.01056 -0.02581,-0.02116 -0.03871,-0.03172 -0.0129,-0.01056 -0.02581,-0.02116 -0.03871,-0.03172 -0.0129,-0.01056 -0.02581,-0.02115 -0.03871,-0.03172 -0.0129,-0.01056 -0.02583,-0.02116 -0.03871,-0.03173 -0.0129,-0.01056 -0.02581,-0.02115 -0.03871,-0.03173 -0.0129,-0.01056 -0.02581,-0.02116 -0.03871,-0.03172 -0.0129,-0.01056 -0.02581,-0.02115 -0.03871,-0.03173 -0.0129,-0.01056 -0.02581,-0.02116 -0.03871,-0.03173 -0.0129,-0.01056 -0.02581,-0.02116 -0.03871,-0.03175 -0.0129,-0.01056 -0.02581,-0.02115 -0.03871,-0.03172 -0.0129,-0.01056 -0.02581,-0.02116 -0.03871,-0.03172 -0.0129,-0.01056 -0.0258,-0.02116 -0.03871,-0.03173 -0.0129,-0.01056 -0.02581,-0.02116 -0.03872,-0.03173 -0.0129,-0.01056 -0.02581,-0.02115 -0.03871,-0.03172 -0.0129,-0.01056 -0.02581,-0.02116 -0.03871,-0.03172 -0.0129,-0.01056 -0.02581,-0.02116 -0.03871,-0.03172 -0.0129,-0.01056 -0.02581,-0.02115 -0.03871,-0.03173 -0.0129,-0.01056 -0.02583,-0.02116 -0.03871,-0.03172 -0.0129,-0.01056 -0.02581,-0.02115 -0.03871,-0.03172 -0.0129,-0.01056 -0.02581,-0.02116 -0.03871,-0.03175 -0.0129,-0.01056 -0.02581,-0.02115 -0.03871,-0.03172 -0.0129,-0.01056 -0.02581,-0.02116 -0.03872,-0.03175 -0.0129,-0.01056 -0.02581,-0.02115 -0.03871,-0.03173 -0.0129,-0.01056 -0.02581,-0.02116 -0.03871,-0.03173 -0.0129,-0.01056 -0.02581,-0.02116 -0.03871,-0.03172 -0.0129,-0.01056 -0.02581,-0.02116 -0.03871,-0.03173 -0.0129,-0.01056 -0.02581,-0.02116 -0.03871,-0.03172 -0.0129,-0.01056 -0.02581,-0.02116 -0.03871,-0.03173 -0.0129,-0.01056 -0.02581,-0.02116 -0.03871,-0.03172 -0.0129,-0.01056 -0.02581,-0.02116 -0.03871,-0.03172 -0.0129,-0.01056 -0.02579,-0.02115 -0.03871,-0.03173 -0.0129,-0.01056 -0.02581,-0.02116 -0.03871,-0.03173 -0.0129,-0.01056 -0.02581,-0.02116 -0.03871,-0.03172 -0.0129,-0.01056 -0.02581,-0.02116 -0.03871,-0.03173 -0.0129,-0.01056 -0.02581,-0.02116 -0.03871,-0.03172 -0.0129,-0.01056 -0.02581,-0.02116 -0.03871,-0.03173 -0.0129,-0.01056 -0.02581,-0.02116 -0.03871,-0.03172 -0.0129,-0.01056 -0.02581,-0.02116 -0.03871,-0.03173 -0.0129,-0.01056 -0.02581,-0.02116 -0.03871,-0.03172 -0.0129,-0.01056 -0.02581,-0.02116 -0.03871,-0.03173 -0.0129,-0.01056 -0.02581,-0.02116 -0.03871,-0.03172 -0.0129,-0.01056 -0.0258,-0.02116 -0.03872,-0.03172 -0.0129,-0.01056 -0.02581,-0.02115 -0.03871,-0.03172 -0.0129,-0.01056 -0.02581,-0.02116 -0.03871,-0.03175 -0.0129,-0.01056 -0.02581,-0.02115 -0.03871,-0.03172 -0.0129,-0.01056 -0.02581,-0.02116 -0.03871,-0.03175 -0.0129,-0.01056 -0.02581,-0.02115 -0.03871,-0.03172 -0.0129,-0.01056 -0.02581,-0.02116 -0.03871,-0.03173 -0.0129,-0.01056 -0.02581,-0.02115 -0.03871,-0.03172 -0.0129,-0.01056 -0.0258,-0.02116 -0.03871,-0.03175 -0.0129,-0.01056 -0.02581,-0.02115 -0.03871,-0.03172 -0.0129,-0.01056 -0.02581,-0.02116 -0.03871,-0.03175 -0.0129,-0.01056 -0.0258,-0.02115 -0.03871,-0.03172 -0.0129,-0.01056 -0.02581,-0.02116 -0.03871,-0.03175 -0.0129,-0.01056 -0.02581,-0.02115 -0.03871,-0.03172 -0.0129,-0.01056 -0.02581,-0.02116 -0.03873,-0.03175 -0.0129,-0.01056 -0.02581,-0.02115 -0.03872,-0.03172 -0.0129,-0.01056 -0.02581,-0.02116 -0.03871,-0.03172 -0.0129,-0.01056 -0.02581,-0.02115 -0.03871,-0.03173 -0.0129,-0.01056 -0.02581,-0.02116 -0.03871,-0.03172 -0.0129,-0.01056 -0.02581,-0.02115 -0.03871,-0.03172 -0.0129,-0.01056 -0.02581,-0.02116 -0.03871,-0.03173 -0.0129,-0.01056 -0.02581,-0.02115 -0.03871,-0.03173 -0.0129,-0.01056 -0.02581,-0.02116 -0.03871,-0.03172"
       title="exp(-x*x)*sin(12*x)"
       id="path5457" />
  </g>
</svg>
